<svg width="30" height="30" viewBox="0 0 30 30" fill="none" xmlns="http://www.w3.org/2000/svg">
<path d="M14.3845 14.8896L8.07102 8.57614C7.93155 8.43667 7.93155 8.21054 8.07102 8.07107C8.2105 7.9316 8.43663 7.9316 8.5761 8.07107L14.8896 14.3845L15.1421 14.6371L15.3946 14.3845L21.7081 8.07107C21.8476 7.9316 22.0737 7.9316 22.2132 8.07107C22.3526 8.21054 22.3526 8.43667 22.2132 8.57614L15.8997 14.8896C15.7602 15.0291 15.7602 15.2552 15.8997 15.3947L22.2132 21.7081C22.3526 21.8476 22.3526 22.0737 22.2132 22.2132C22.0737 22.3527 21.8476 22.3527 21.7081 22.2132L15.3946 15.8998L15.1421 15.6472L14.8896 15.8998L8.5761 22.2132C8.43662 22.3527 8.2105 22.3527 8.07102 22.2132C7.93155 22.0737 7.93155 21.8476 8.07102 21.7081L14.3845 15.3947L14.637 15.1421L14.3845 14.8896Z" fill="#35486B"/>
<path d="M14.637 15.1421L8.07102 8.57614C7.93155 8.43667 7.93155 8.21054 8.07102 8.07107V8.07107V8.07107C8.21049 7.9316 8.43663 7.9316 8.5761 8.07107L15.1421 14.6371M14.637 15.1421L8.07102 21.7081C7.93155 21.8476 7.93155 22.0737 8.07102 22.2132V22.2132V22.2132C8.21049 22.3527 8.43663 22.3527 8.5761 22.2132L15.1421 15.6472M14.637 15.1421L14.3845 14.8896M14.637 15.1421L14.3845 15.3947M15.1421 15.6472L21.7081 22.2132C21.8476 22.3527 22.0737 22.3527 22.2132 22.2132V22.2132V22.2132C22.3526 22.0737 22.3526 21.8476 22.2132 21.7081L15.8997 15.3947V15.3947C15.7602 15.2552 15.7602 15.0291 15.8997 14.8896V14.8896L22.2132 8.57614C22.3526 8.43667 22.3526 8.21054 22.2132 8.07107V8.07107V8.07107C22.0737 7.9316 21.8476 7.9316 21.7081 8.07107L15.1421 14.6371M15.1421 15.6472L15.3946 15.8998M15.1421 15.6472L14.8896 15.8998M15.1421 14.6371L14.8896 14.3845M15.1421 14.6371L15.3946 14.3845" stroke="#35486B"/>
</svg>
