<svg width="18" height="20" viewBox="0 0 18 20" fill="none" xmlns="http://www.w3.org/2000/svg">
<g opacity="0.8">
<path d="M16.8451 18.0703H0.964789C0.434246 18.0703 0 18.5043 0 19.0351C0 19.5656 0.434246 19.9999 0.964789 19.9999H16.8549C17.3854 19.9999 17.8196 19.5656 17.8196 19.0351C17.8196 18.5043 17.3854 18.0703 16.8451 18.0703Z" fill="black"/>
<path d="M8.20065 14.6068C8.3841 14.7997 8.63489 14.9155 8.90489 14.9155C9.17519 14.9155 9.42598 14.7997 9.60913 14.6068L15.2629 8.53835C15.6295 8.15225 15.6005 7.53486 15.2147 7.17801C14.8286 6.81142 14.2112 6.84006 13.8544 7.22616L9.86968 11.5001V0.964788C9.86968 0.433942 9.43543 0 8.90489 0C8.37434 0 7.9401 0.433942 7.9401 0.964788V11.5001L3.96514 7.22616C3.59855 6.84037 2.9906 6.81142 2.60481 7.17801C2.21902 7.54461 2.19007 8.15255 2.55666 8.53835L8.20065 14.6068Z" fill="black"/>
</g>
</svg>
