<svg width="24" height="14" viewBox="0 0 24 14" fill="none" xmlns="http://www.w3.org/2000/svg">
<path d="M1.28305 7.15338C1.24076 7.09307 1.20591 7.04191 1.17855 7.00098C1.20591 6.96004 1.24076 6.90888 1.28305 6.84857C1.40136 6.67989 1.57754 6.44029 1.81102 6.15329C2.27879 5.57827 2.97164 4.81895 3.88432 4.05922C6.30282 2.04617 9.11586 1.00098 12.0247 1.00098C14.9339 1.00098 17.7385 2.04651 20.1413 4.05886C21.6718 5.34087 22.5721 6.61799 22.8253 7.00092C22.5731 7.38246 21.6728 8.6603 20.1413 9.9431C17.7385 11.9554 14.9339 13.001 12.0247 13.001C9.11587 13.001 6.30284 11.9558 3.88435 9.94276C2.97167 9.18303 2.27879 8.42369 1.81102 7.84866C1.57754 7.56166 1.40136 7.32207 1.28305 7.15338Z" stroke="#261C4B" stroke-width="2"/>
<path d="M15.8981 7.00098C15.8981 9.21579 14.115 11.001 11.928 11.001C9.74111 11.001 7.95801 9.21579 7.95801 7.00098C7.95801 4.78616 9.74111 3.00098 11.928 3.00098C14.115 3.00098 15.8981 4.78616 15.8981 7.00098Z" fill="#261C4B" stroke="#261C4B" stroke-width="2"/>
</svg>
