<svg width="25" height="19" viewBox="0 0 25 19" fill="none" xmlns="http://www.w3.org/2000/svg">
<path d="M3.90161 6.10592C6.33551 4.0922 9.16761 3.04579 12.0971 3.04579C15.0272 3.04579 17.8507 4.09254 20.2688 6.10557C21.8059 7.38528 22.7111 8.66002 22.968 9.04573C22.7121 9.43008 21.8068 10.7055 20.2689 11.986C17.8508 13.999 15.0272 15.0458 12.0971 15.0458C9.16761 15.0458 6.33551 13.9994 3.90164 11.9857C2.9832 11.2257 2.28601 10.4663 1.8154 9.8912C1.5805 9.60417 1.40325 9.36457 1.28423 9.19588C1.24247 9.1367 1.20793 9.08633 1.18065 9.04579C1.20793 9.00525 1.24247 8.95488 1.28423 8.8957C1.40325 8.72702 1.5805 8.48741 1.8154 8.20039C2.28601 7.62533 2.98317 6.86587 3.90161 6.10592ZM3.90161 6.10592L3.26414 5.33544M3.90161 6.10592L3.26414 5.33544M3.26414 5.33544C1.30845 6.95365 0.296188 8.568 0.254078 8.63603L23.0434 8.92922L23.292 8.52338L23.6886 8.76638L23.8959 8.63947M3.26414 5.33544C5.86525 3.18337 8.91965 2.04579 12.0971 2.04579C15.2755 2.04579 18.3224 3.18398 20.9087 5.33706C22.8533 6.95608 23.8542 8.57165 23.8959 8.63947M23.8959 8.63947L24.1447 9.04579L23.6891 8.76665L23.8959 8.63947ZM23.0436 9.16255C23.0438 9.16291 23.044 9.16315 23.0441 9.16329L23.2919 9.56802L23.6887 9.325L23.8959 9.45191L23.0436 9.16255Z" stroke="#261C4B" stroke-width="2"/>
<circle cx="12" cy="9.04579" r="4" fill="#261C4B" stroke="#261C4B" stroke-width="2"/>
<rect x="16.1997" y="1.00198" width="18.9348" height="2" transform="rotate(120 16.1997 1.00198)" fill="#261C4B"/>
<rect x="17.9341" y="2.00198" width="18.9348" height="2" transform="rotate(120 17.9341 2.00198)" fill="white"/>
</svg>
