<svg width="14" height="14" viewBox="0 0 14 14" fill="none" xmlns="http://www.w3.org/2000/svg">
<path opacity="0.8" d="M11.9498 2.05021C10.6276 0.728109 8.86977 0 7 0C5.13021 0 3.37233 0.728109 2.05021 2.05023C0.728109 3.37233 0 5.13021 0 7V8.31797V13.5898C0 13.8164 0.183641 14 0.410156 14H4.22185C4.44836 14 4.632 13.8164 4.632 13.5898V8.31797C4.632 8.09145 4.44836 7.90781 4.22185 7.90781H2.47461V7.12305C2.47461 4.62774 4.50469 2.59766 7 2.59766C9.49531 2.59766 11.5254 4.62774 11.5254 7.12305V7.90781H9.77815C9.55164 7.90781 9.368 8.09145 9.368 8.31797V13.5898C9.368 13.8164 9.55164 14 9.77815 14H13.5898C13.8164 14 14 13.8164 14 13.5898V8.31797V7C14 5.13021 13.2719 3.37236 11.9498 2.05021ZM3.81169 8.72813V13.1797H0.820312V8.72813H3.81169ZM13.1797 13.1797H10.1883V8.72813H13.1797V13.1797ZM13.1797 7.90781H12.3457V7.12305C12.3457 4.17542 9.94763 1.77734 7 1.77734C4.05237 1.77734 1.6543 4.17542 1.6543 7.12305V7.90781H0.820312V7C0.820312 3.5925 3.5925 0.820312 7 0.820312C10.4075 0.820312 13.1797 3.5925 13.1797 7V7.90781Z" fill="#060D4E"/>
</svg>
