<svg width="11" height="13" viewBox="0 0 11 13" fill="none" xmlns="http://www.w3.org/2000/svg">
<path opacity="0.8" d="M0.54347 13C0.399333 13 0.2611 12.9429 0.159179 12.8413C0.0572589 12.7398 0 12.602 0 12.4583V0.541673C-1.19621e-06 0.445717 0.0255727 0.351482 0.0741056 0.26861C0.122638 0.185738 0.192388 0.117204 0.276219 0.0700177C0.36005 0.0228313 0.454952 -0.00131295 0.551218 5.50647e-05C0.647484 0.00142308 0.741658 0.0282541 0.824105 0.0778035L10.7373 6.03613C10.8174 6.08434 10.8837 6.15237 10.9298 6.23363C10.9758 6.31489 11 6.40662 11 6.49994C11 6.59325 10.9758 6.68499 10.9298 6.76625C10.8837 6.8475 10.8174 6.91553 10.7373 6.96374L0.824105 12.9221C0.739419 12.973 0.642387 13 0.54347 13ZM1.08694 1.5009V11.4991L9.40427 6.5L1.08694 1.5009Z" fill="#060D4E"/>
</svg>
