<svg width="16" height="16" viewBox="0 0 16 16" fill="none" xmlns="http://www.w3.org/2000/svg">
<path d="M1.21285 15.2929L0.707069 14.7871C0.316545 14.3966 0.316545 13.7634 0.707069 13.3729L13.3728 0.707107C13.7634 0.316582 14.3965 0.316583 14.7871 0.707107L15.2928 1.21289C15.6834 1.60342 15.6834 2.23658 15.2928 2.62711L2.62707 15.2929C2.23654 15.6834 1.60338 15.6834 1.21285 15.2929Z" fill="#C5C8D8"/>
<path d="M15.293 14.787L14.7872 15.2928C14.3967 15.6833 13.7635 15.6833 13.373 15.2928L0.707229 2.62703C0.316705 2.2365 0.316705 1.60334 0.707229 1.21281L1.21301 0.70703C1.60354 0.316505 2.2367 0.316505 2.62723 0.70703L15.293 13.3728C15.6835 13.7633 15.6835 14.3965 15.293 14.787Z" fill="#C5C8D8"/>
</svg>
