<svg width="17" height="18" viewBox="0 0 17 18" fill="none" xmlns="http://www.w3.org/2000/svg">
<path d="M5.09117 4.48588L8.48528 7.87999L11.8794 4.48588C12.1137 4.25156 12.4936 4.25156 12.7279 4.48588C12.9622 4.72019 12.9622 5.10009 12.7279 5.3344L9.33381 8.72852L12.7279 12.1226C12.9622 12.3569 12.9622 12.7368 12.7279 12.9712C12.4936 13.2055 12.1137 13.2055 11.8794 12.9712L8.48528 9.57704L5.09117 12.9712C4.85685 13.2055 4.47696 13.2055 4.24264 12.9712C4.00833 12.7368 4.00833 12.3569 4.24264 12.1226L7.63675 8.72852L4.24264 5.3344C4.00833 5.10009 4.00833 4.72019 4.24264 4.48588C4.47696 4.25156 4.85685 4.25156 5.09117 4.48588Z" fill="#261C4B"/>
</svg>
