<svg width="30" height="30" viewBox="0 0 30 30" fill="none" xmlns="http://www.w3.org/2000/svg">
<path d="M1 15C1 22.732 7.26801 29 15 29C17.3872 29 19.6348 28.4025 21.6015 27.349L17.8033 22C16.9368 22.3474 15.9907 22.5385 15 22.5385C10.8366 22.5385 7.46154 19.1634 7.46154 15C7.46154 13.3983 7.96103 11.9134 8.81274 10.6923L4.63076 5.59353C2.37473 8.07897 1 11.3789 1 15Z" stroke="#285DC0"/>
<path d="M15 7.46154C13.55 7.46154 12.1957 7.8709 11.0462 8.58035L6.92308 3.56342C9.20517 1.94878 11.9918 1 15 1C20.7799 1 25.7417 4.50259 27.8787 9.50101L21.7131 11.5668C20.4641 9.12955 17.9269 7.46154 15 7.46154Z" stroke="#285DC0"/>
<path d="M22.5385 15C22.5385 14.819 22.5321 14.6394 22.5195 14.4615L28.7611 12.4113C28.918 13.2503 29 14.1155 29 15C29 19.2323 27.122 23.0259 24.1538 25.5931L20.328 20.333C21.6937 18.9686 22.5385 17.0829 22.5385 15Z" stroke="#285DC0"/>
</svg>
