<svg width="30" height="30" viewBox="0 0 30 30" fill="none" xmlns="http://www.w3.org/2000/svg">
<path d="M10.7612 4.73199C7.07395 5.60345 4.49951 8.86502 4.49951 12.6642V15.9187C4.49951 18.1901 3.51848 20.341 1.80375 21.8365C1.77214 21.8564 1.74181 21.8784 1.71383 21.903C1.26016 22.2915 1 22.8571 1 23.4545C1 24.5801 1.91567 25.4958 3.04131 25.4958H22.2886C23.4145 25.4958 24.3301 24.5801 24.3301 23.4545C24.3301 22.8571 24.07 22.2915 23.615 21.903C23.587 21.8797 23.5591 21.8587 23.5287 21.8389C22.7098 21.1238 22.0601 20.2651 21.597 19.2877" stroke="#285DC0"/>
<path d="M21.4141 16.1645C17.2334 16.1645 13.832 12.763 13.832 8.58234C13.832 4.40147 17.2334 1 21.4141 1C25.595 1 28.9964 4.40147 28.9964 8.58234C28.9964 12.763 25.595 16.1645 21.4141 16.1645Z" stroke="#285DC0"/>
<path d="M16.0759 25.7697C16.0759 27.5537 14.6297 29 12.8456 29C11.0616 29 9.6153 27.5537 9.6153 25.7697" stroke="#285DC0"/>
</svg>
