<svg width="40" height="46" viewBox="0 0 40 46" fill="none" xmlns="http://www.w3.org/2000/svg">
<path d="M40 25.073V31.0288C40 32.2901 39.6041 33.495 38.9001 34.4914C38.7886 34.6492 38.6695 34.8017 38.5429 34.9484C38.1079 35.4527 37.5859 35.8881 36.9908 36.2303L32.4668 38.8316L36.3665 31.7817L38.5429 34.9484C38.6695 34.8017 38.7886 34.6492 38.9001 34.4914L36.6654 31.2412L40 25.073Z" fill="#9EC8FF"/>
<path d="M40 14.9712V23.9292L36.2919 30.7016L26.1376 15.9293L31.3014 6.49829L36.9908 9.76972C38.8524 10.8401 40 12.8238 40 14.9712Z" fill="#9EC8FF"/>
<path d="M21.9974 1.1485L30.825 6.2244L25.789 15.4221L19.5526 6.34942L21.9974 1.1485Z" fill="#9EC8FF"/>
<path d="M16.5513 1.98303L18.4434 0.895035C19.4072 0.340884 20.5928 0.340884 21.5566 0.895034L19.1913 5.82378L16.5513 1.98303Z" fill="#9EC8FF"/>
<path d="M1.67126 10.539L16.0737 2.25764L18.9214 6.4006L9.93411 25.5201L0 13.4278C0 12.2352 0.637363 11.1335 1.67126 10.539Z" fill="#9EC8FF"/>
<path d="M0 31.0288V14.2926L9.67554 26.0702L4.49741 37.086L3.00918 36.2303C1.1476 35.1599 0 33.1762 0 31.0288Z" fill="#9EC8FF"/>
<path d="M11.6694 41.2099L4.97536 37.3608L10.0617 26.5402L15.8462 33.5814L11.6694 41.2099Z" fill="#9EC8FF"/>
<path d="M17.0092 44.2803L12.1457 41.4838L16.2221 34.0389L24.1079 43.6379L22.9908 44.2803C21.1391 45.345 18.8609 45.345 17.0092 44.2803Z" fill="#9EC8FF"/>
<path d="M31.5527 39.3572L35.9964 31.2412L25.8422 16.4689L16.5062 33.5199L24.5905 43.3605L31.5527 39.3572Z" fill="#9EC8FF"/>
<path d="M16.1304 33.0625L25.4936 15.9617L19.282 6.92514L10.3203 25.9902L16.1304 33.0625Z" fill="#9EC8FF"/>
</svg>
