<svg width="32" height="32" viewBox="0 0 32 32" fill="none" xmlns="http://www.w3.org/2000/svg">
<path d="M14 1.1547C15.2376 0.440169 16.7624 0.440169 18 1.1547L27.8564 6.8453C29.094 7.55983 29.8564 8.88034 29.8564 10.3094V21.6906C29.8564 23.1197 29.094 24.4402 27.8564 25.1547L18 30.8453C16.7624 31.5598 15.2376 31.5598 14 30.8453L4.14359 25.1547C2.90599 24.4402 2.14359 23.1197 2.14359 21.6906V10.3094C2.14359 8.88034 2.90599 7.55983 4.14359 6.8453L14 1.1547Z" fill="white" stroke="#285DC0"/>
<path d="M12.308 20.3496V11.6504C12.308 10.865 13.172 10.3861 13.838 10.8024L20.7974 15.152C21.4241 15.5437 21.4241 16.4563 20.7974 16.848L13.838 21.1976C13.172 21.6139 12.308 21.135 12.308 20.3496Z" fill="white" stroke="#285DC0"/>
</svg>
