<svg width="54" height="54" viewBox="0 0 54 54" fill="none" xmlns="http://www.w3.org/2000/svg">
<path d="M51.3871 13.9355H46.7886L29.5755 2.98204C29.5929 2.86041 29.6129 2.73921 29.6129 2.6129C29.6129 1.17249 28.4404 0 27 0C25.5596 0 24.3871 1.17249 24.3871 2.6129C24.3871 2.81491 24.4152 3.00926 24.4585 3.19723L7.58439 13.9355H2.6129C1.17249 13.9355 0 15.108 0 16.5484V51.3871C0 52.8275 1.17249 54 2.6129 54H51.3871C52.8275 54 54 52.8275 54 51.3871V16.5484C54 15.108 52.8275 13.9355 51.3871 13.9355ZM27 1.74194C27.4797 1.74194 27.871 2.13319 27.871 2.6129C27.871 3.09262 27.4797 3.48387 27 3.48387C26.5203 3.48387 26.129 3.09262 26.129 2.6129C26.129 2.13319 26.5203 1.74194 27 1.74194ZM25.4001 4.66316C25.8432 5.01062 26.3948 5.22581 27 5.22581C27.6813 5.22581 28.2967 4.95746 28.7619 4.5292L43.5433 13.9355H10.8297L25.4001 4.66316ZM52.2581 51.3871C52.2581 51.8677 51.8668 52.2581 51.3871 52.2581H2.6129C2.13319 52.2581 1.74194 51.8677 1.74194 51.3871V16.5484C1.74194 16.0687 2.13319 15.6774 2.6129 15.6774H51.3871C51.8668 15.6774 52.2581 16.0687 52.2581 16.5484V51.3871ZM3.48387 50.5161H50.5161V17.4194H3.48387V50.5161ZM5.22581 39.1936H11.3226V41.2681C11.3226 42.5252 12.3449 43.5484 13.6029 43.5484C13.9546 43.5484 14.3072 43.4646 14.6227 43.3081L20.0323 40.6029V48.7742H5.22581V39.1936ZM11.3226 37.4516H5.22581V30.4839H11.3226V37.4516ZM42.0119 30.4839H48.7742V37.4516H42.0119C42.4363 36.3697 42.6774 35.1976 42.6774 33.9677C42.6774 32.7378 42.4363 31.5658 42.0119 30.4839ZM33.0968 41.8064C30.1232 41.8064 27.4852 40.15 26.1499 37.5439L27.6872 36.775C28.7211 38.7764 30.7871 40.0645 33.0968 40.0645C36.4586 40.0645 39.1936 37.3287 39.1936 33.9677C39.1936 30.6068 36.4586 27.871 33.0968 27.871C30.7871 27.871 28.7211 29.1591 27.6872 31.1596L26.1499 30.3907C27.4852 27.7855 30.1232 26.129 33.0968 26.129C37.4184 26.129 40.9355 29.6452 40.9355 33.9677C40.9355 38.2903 37.4184 41.8064 33.0968 41.8064ZM24.5789 38.3294C26.0759 41.2689 28.9414 43.2111 32.2258 43.505V48.7742H21.7742V39.7319L24.5789 38.3294ZM29.2455 31.9426C29.9876 30.5255 31.4539 29.6129 33.0968 29.6129C35.4979 29.6129 37.4516 31.5666 37.4516 33.9677C37.4516 36.3689 35.4979 38.3226 33.0968 38.3226C31.4552 38.3226 29.9876 37.4099 29.2455 35.9929C30.0084 35.5991 30.4839 34.8281 30.4839 33.9677C30.4839 33.1074 30.0084 32.3364 29.2455 31.9426ZM32.2258 24.4296C28.9414 24.7243 26.0759 26.6666 24.5789 29.6061L21.7742 28.2035V19.1613H32.2258V24.4296ZM28.4442 33.4859C28.628 33.5786 28.7419 33.7632 28.7419 33.9677C28.7419 34.1723 28.628 34.3569 28.4442 34.4496L13.8432 41.7499C13.5034 41.9204 13.0645 41.647 13.0645 41.2681V26.6674C13.0645 26.3702 13.3056 26.129 13.6029 26.129C13.6854 26.129 13.7692 26.1482 13.8432 26.1856L28.4442 33.4859ZM33.9677 48.7742V43.5042C36.9596 43.2333 39.5542 41.5819 41.1167 39.1936H48.7742V48.7742H33.9677ZM48.7742 28.7419H41.1167C39.555 26.3527 36.9596 24.7022 33.9677 24.4313V19.1613H48.7742V28.7419ZM20.0323 19.1613V27.3326L14.6227 24.6282C14.3072 24.4709 13.9546 24.3871 13.6029 24.3871C12.3449 24.3871 11.3226 25.4095 11.3226 26.6674V28.7419H5.22581V19.1613H20.0323ZM16.5484 39.1936H14.8065V28.7419H16.5484V33.0968H26.129V34.8387H16.5484V39.1936Z" fill="#5F91ED"/>
</svg>
