<svg width="62" height="62" viewBox="0 0 62 62" fill="none" xmlns="http://www.w3.org/2000/svg">
<g filter="url(#filter0_d)">
<circle cx="31" cy="31" r="14.8492" transform="rotate(45 31 31)" fill="white"/>
<circle cx="31" cy="31" r="14.3492" transform="rotate(45 31 31)" stroke="#DFE9FB"/>
</g>
<path d="M30.55 30.8501L26.8 27.1001C26.7172 27.0173 26.7172 26.8829 26.8 26.8001C26.8828 26.7173 27.0172 26.7173 27.1 26.8001L30.85 30.5501L31 30.7001L31.15 30.5501L34.9 26.8001C34.9828 26.7173 35.1172 26.7173 35.2 26.8001C35.2828 26.8829 35.2828 27.0173 35.2 27.1001L31.45 30.8501C31.3672 30.9329 31.3672 31.0673 31.45 31.1501L35.2 34.9001C35.2828 34.9829 35.2828 35.1173 35.2 35.2001C35.1172 35.2829 34.9828 35.2829 34.9 35.2001L31.15 31.4501L31 31.3001L30.85 31.4501L27.1 35.2001C27.0172 35.2829 26.8828 35.2829 26.8 35.2001C26.7172 35.1173 26.7172 34.9829 26.8 34.9001L30.55 31.1501L30.7 31.0001L30.55 30.8501Z" fill="#35486B"/>
<path d="M30.7 31.0001L26.8 27.1001C26.7172 27.0173 26.7172 26.8829 26.8 26.8001V26.8001V26.8001C26.8828 26.7173 27.0172 26.7173 27.1 26.8001L31 30.7001M30.7 31.0001L26.8 34.9001C26.7172 34.9829 26.7172 35.1173 26.8 35.2001V35.2001V35.2001C26.8828 35.2829 27.0172 35.2829 27.1 35.2001L31 31.3001M30.7 31.0001L30.55 30.8501M30.7 31.0001L30.55 31.1501M31 31.3001L34.9 35.2001C34.9828 35.2829 35.1172 35.2829 35.2 35.2001V35.2001V35.2001C35.2828 35.1173 35.2828 34.9829 35.2 34.9001L31.45 31.1501V31.1501C31.3672 31.0673 31.3672 30.9329 31.45 30.8501V30.8501L35.2 27.1001C35.2828 27.0173 35.2828 26.8829 35.2 26.8001V26.8001V26.8001C35.1172 26.7173 34.9828 26.7173 34.9 26.8001L31 30.7001M31 31.3001L31.15 31.4501M31 31.3001L30.85 31.4501M31 30.7001L30.85 30.5501M31 30.7001L31.15 30.5501" stroke="#35486B"/>
<defs>
<filter id="filter0_d" x="0" y="0" width="62" height="62" filterUnits="userSpaceOnUse" color-interpolation-filters="sRGB">
<feFlood flood-opacity="0" result="BackgroundImageFix"/>
<feColorMatrix in="SourceAlpha" type="matrix" values="0 0 0 0 0 0 0 0 0 0 0 0 0 0 0 0 0 0 127 0"/>
<feOffset/>
<feGaussianBlur stdDeviation="5"/>
<feColorMatrix type="matrix" values="0 0 0 0 0 0 0 0 0 0 0 0 0 0 0 0 0 0 0.04 0"/>
<feBlend mode="normal" in2="BackgroundImageFix" result="effect1_dropShadow"/>
<feBlend mode="normal" in="SourceGraphic" in2="effect1_dropShadow" result="shape"/>
</filter>
</defs>
</svg>
