<svg width="10" height="10" viewBox="0 0 10 10" fill="none" xmlns="http://www.w3.org/2000/svg">
<path d="M9.40656 0.593323C9.1835 0.370259 8.82576 0.370259 8.60269 0.593323L5 4.19602L1.39732 0.593323C1.17425 0.370259 0.816509 0.370259 0.593445 0.593323C0.370382 0.816387 0.370382 1.17413 0.593445 1.3972L4.19613 4.99989L0.593445 8.60258C0.370382 8.82565 0.370382 9.18339 0.593445 9.40646C0.702873 9.51588 0.850179 9.57481 0.993276 9.57481C1.13637 9.57481 1.28368 9.52009 1.39311 9.40646L4.99579 5.80376L8.59848 9.40646C8.70791 9.51588 8.85522 9.57481 8.99831 9.57481C9.14562 9.57481 9.28872 9.52009 9.39814 9.40646C9.62121 9.18339 9.62121 8.82565 9.39814 8.60258L5.80387 4.99989L9.40656 1.3972C9.62962 1.17413 9.62962 0.816387 9.40656 0.593323Z" fill="#261C4B"/>
</svg>
