<svg width="86" height="100" viewBox="0 0 86 100" fill="none" xmlns="http://www.w3.org/2000/svg">
<path d="M29.754 14.3616L26.9721 9.54326C26.9185 9.45042 26.7997 9.41877 26.707 9.47266L26.5391 9.57031L26.2031 9.76563L25.5312 10.1563L24.1875 10.9375L21.5 12.5L18.8125 14.0625L17.4687 14.8438L16.7969 15.2344L16.4609 15.4297L16.293 15.5273C16.2001 15.5813 16.1684 15.7003 16.2221 15.7933L18.974 20.5597C19.0256 20.6491 19.1398 20.6798 19.2293 20.6285L19.3913 20.5357L19.7152 20.3499L20.363 19.9785L21.6587 19.2357L24.25 17.75L27.0525 16.1432L28.4537 15.3399L29.1544 14.9382L29.5047 14.7373L29.6798 14.6369C29.7765 14.5815 29.8097 14.4581 29.754 14.3616Z" fill="#DDDEE2" fill-opacity="0.6"/>
<path d="M35.1092 11.2022L32.4443 6.58653C32.3369 6.4005 32.4002 6.16265 32.5859 6.05469L32.9219 5.85938L33.5937 5.46875L34.9375 4.6875L37.625 3.125L40.9895 1.16888C42.2324 0.446255 43.7676 0.446256 45.0105 1.16888L48.375 3.125L51.0625 4.6875L52.4062 5.46875L53.0781 5.85938L53.3734 6.03258C53.5814 6.15266 53.6527 6.41861 53.5326 6.62659L50.9686 11.0674C50.8486 11.2754 50.5826 11.3467 50.3746 11.2266L49.7823 10.8885L48.8134 10.333L46.8756 9.22202L44.9895 8.14067C43.7573 7.43416 42.2427 7.43416 41.0105 8.14067L39.1244 9.22202L37.1866 10.333L36.2177 10.8885L35.7332 11.1663L35.491 11.3052C35.3571 11.3819 35.1863 11.3359 35.1092 11.2022Z" fill="#DDDEE2" fill-opacity="0.6"/>
<path d="M13.5264 23.5588L10.9443 19.0865C10.8371 18.9008 10.5994 18.8375 10.4141 18.9453L10.0781 19.1406L9.40625 19.5312L8.0625 20.3125L5.375 21.875L1.98952 23.8433C0.757824 24.5594 0 25.8766 0 27.3013L0 31.25L0 34.375L0 35.9375L0 36.7188L0 37.1094C0 37.3251 0.174889 37.5 0.390625 37.5H5.07813C5.31112 37.5 5.5 37.3111 5.5 37.0781V36.9375V36.375V35.25V33V30.8175C5.5 29.3841 6.26697 28.0603 7.51047 27.3473L9.5868 26.1569L11.6302 24.9854L12.6519 24.3996L13.1627 24.1067L13.4182 23.9603C13.5591 23.8794 13.6076 23.6995 13.5264 23.5588Z" fill="#DDDEE2" fill-opacity="0.6"/>
<path d="M5.10938 43.75H0.390625C0.174889 43.75 0 43.9249 0 44.1406L0 44.5312L0 45.3125L0 46.875L0 50L0 53.125L0 54.6875L0 55.4688L0 55.8594C0 56.0751 0.174889 56.25 0.390625 56.25H5.10938C5.32511 56.25 5.5 56.0751 5.5 55.8594V55.4688V54.6875V53.125V50V46.875V45.3125V44.5312V44.1406C5.5 43.9249 5.32511 43.75 5.10938 43.75Z" fill="#DDDEE2" fill-opacity="0.6"/>
<path d="M5.21875 62.5H0.195312C0.0874444 62.5 0 62.5874 0 62.6953L0 62.8906L0 63.2812L0 64.0625L0 65.625L0 68.75L0 72.6987C0 74.1234 0.757822 75.4406 1.98952 76.1567L5.375 78.125L8.0625 79.6875L9.40625 80.4688L10.0781 80.8594L10.4141 81.0547C10.5994 81.1625 10.8371 81.0992 10.9443 80.9135L13.4787 76.5237C13.5863 76.3373 13.5225 76.0989 13.336 75.9913L12.6519 75.6004L11.6302 75.0146L9.5868 73.8431L7.51047 72.6527C6.26697 71.9397 5.5 70.6159 5.5 69.1825V67V64.75V63.625V63.0625V62.7812C5.5 62.6259 5.37408 62.5 5.21875 62.5Z" fill="#DDDEE2" fill-opacity="0.6"/>
<path d="M29.6811 85.7648L27.0489 90.3238C26.9529 90.4902 26.7401 90.5471 26.5738 90.4511L26.2031 90.2344L25.5312 89.8438L24.1875 89.0625L21.5 87.5L18.8125 85.9375L17.4687 85.1562L16.7969 84.7656L16.4609 84.5703C16.2752 84.4623 16.2119 84.2245 16.3193 84.0385L18.8731 79.6152C18.9805 79.4291 19.2182 79.3651 19.4045 79.4719L19.7416 79.6652L20.4158 80.0517L21.7643 80.8249L24.4612 82.3711L27.1581 83.9173L28.5065 84.6904L29.1808 85.077L29.5514 85.2937C29.7184 85.3871 29.7767 85.5991 29.6811 85.7648Z" fill="#DDDEE2" fill-opacity="0.6"/>
<path d="M35.0314 88.9325L32.4675 93.3733C32.3466 93.5827 32.4152 93.8502 32.6218 93.9756L33.5937 94.5312L34.9375 95.3125L37.625 96.875L40.9895 98.8311C42.2324 99.5537 43.7676 99.5537 45.0105 98.8311L48.375 96.875L51.0625 95.3125L52.4062 94.5312L53.0781 94.1406L53.4141 93.9453C53.5998 93.8373 53.6631 93.5995 53.5557 93.4135L50.9373 88.8783C50.8345 88.7003 50.6069 88.6393 50.4289 88.7421L50.2668 88.8337L49.7823 89.1115L48.8134 89.667L46.8756 90.778L44.9895 91.8593C43.7573 92.5658 42.2427 92.5658 41.0105 91.8593L39.1244 90.778L37.1866 89.667L36.2177 89.1115L35.627 88.7705C35.4176 88.6517 35.1517 88.7241 35.0314 88.9325Z" fill="#DDDEE2" fill-opacity="0.6"/>
<path d="M56.3393 85.8L58.9307 90.2885C59.0379 90.4742 59.2756 90.5375 59.4609 90.4297L59.7969 90.2344L60.4687 89.8438L61.8125 89.0625L64.5 87.5L67.1875 85.9375L68.5312 85.1562L69.2031 84.7656L69.5391 84.5703C69.7248 84.4623 69.7881 84.2245 69.6807 84.0385L67.1269 79.6152C67.0195 79.4291 66.7818 79.3651 66.5955 79.4719L66.2584 79.6652L65.5842 80.0517L64.2357 80.8249L61.5388 82.3711L58.8419 83.9173L57.4935 84.6904L56.8192 85.077L56.4821 85.2702C56.2961 85.3769 56.2321 85.6143 56.3393 85.8Z" fill="#DDDEE2" fill-opacity="0.6"/>
<path d="M72.5075 76.4998L75.0396 80.8856C75.1558 81.0868 75.4132 81.1558 75.6144 81.0396L75.9219 80.8594L76.5938 80.4688L77.9375 79.6875L80.625 78.125L84.0105 76.1567C85.2422 75.4406 86 74.1234 86 72.6987V68.75V65.625V64.0625V63.2813V62.9999C86 62.7238 85.7762 62.5 85.5001 62.5L81 62.4999C80.7239 62.4999 80.5 62.7238 80.5 62.9999V63.6249V64.75V67V69.1825C80.5 70.6159 79.733 71.9397 78.4895 72.6527L76.4132 73.8431L74.3698 75.0146L73.3481 75.6004L72.6401 76.0051C72.4668 76.1051 72.4075 76.3266 72.5075 76.4998Z" fill="#DDDEE2" fill-opacity="0.6"/>
<path d="M80.8906 43.75H85.6094C85.8251 43.75 86 43.9249 86 44.1406V44.5313V45.3125V46.875V50V53.125V54.6875V55.4688V55.8594C86 56.0751 85.8251 56.25 85.6094 56.25H80.8906C80.6749 56.25 80.5 56.0751 80.5 55.8594V55.4688V54.6875V53.125V50V46.875V45.3125V44.5313V44.1406C80.5 43.9249 80.6749 43.75 80.8906 43.75Z" fill="#DDDEE2" fill-opacity="0.6"/>
<path d="M81.0001 37.5H85.4999C85.7761 37.5 86 37.2761 86 36.9999V36.7188V35.9375V34.375V31.25V27.3013C86 25.8766 85.2422 24.5594 84.0105 23.8433L80.625 21.875L77.9375 20.3125L76.5938 19.5313L75.6967 19.0079C75.45 18.8655 75.1345 18.95 74.9921 19.1967L72.5558 23.4164C72.4291 23.6359 72.5043 23.9165 72.7238 24.0432L73.3481 24.3996L74.3698 24.9854L76.4132 26.1569L78.4895 27.3473C79.733 28.0603 80.5 29.3841 80.5 30.8175V33V35.25V36.375V36.9999C80.5 37.2761 80.7239 37.5 81.0001 37.5Z" fill="#DDDEE2" fill-opacity="0.6"/>
<path d="M67.1269 20.3848L69.6807 15.9615C69.7881 15.7755 69.7248 15.5377 69.5391 15.4297L69.2031 15.2344L68.5312 14.8438L67.1875 14.0625L64.5 12.5L61.8125 10.9375L60.4688 10.1563L59.7969 9.76563L59.4262 9.54888C59.2598 9.45285 59.0471 9.50984 58.9511 9.67617L56.3189 14.2353C56.2229 14.4016 56.2799 14.6143 56.4462 14.7104L56.8192 14.923L57.4935 15.3096L58.8419 16.0827L61.5388 17.6289L64.2357 19.1751L65.5842 19.9483L66.2584 20.3348L66.5955 20.5281C66.7818 20.6349 67.0195 20.5709 67.1269 20.3848Z" fill="#DDDEE2" fill-opacity="0.6"/>
<path d="M43.9999 34H41.9999C41.4477 34 40.9999 34.4477 40.9999 35V47C40.9999 47.5523 40.5522 48 39.9999 48H27.9999C27.4477 48 26.9999 48.4477 26.9999 49V51C26.9999 51.5523 27.4477 52 27.9999 52H39.9999C40.5522 52 40.9999 52.4477 40.9999 53L40.9999 65C40.9999 65.5523 41.4477 66 41.9999 66H43.9999C44.5522 66 44.9999 65.5523 44.9999 65L44.9999 53C44.9999 52.4477 45.4477 52 45.9999 52H57.9999C58.5522 52 58.9999 51.5523 58.9999 51V49C58.9999 48.4477 58.5522 48 57.9999 48H45.9999C45.4477 48 44.9999 47.5523 44.9999 47V35C44.9999 34.4477 44.5522 34 43.9999 34Z" fill="#DDDEE2" fill-opacity="0.6"/>
</svg>
