<svg width="44" height="44" viewBox="0 0 44 44" fill="none" xmlns="http://www.w3.org/2000/svg">
<g clip-path="url(#clip0)">
<path opacity="0.1" d="M35.75 44.001H8.25C3.6933 44.001 0 40.3077 0 35.751V8.25098C0 3.69427 3.6933 0.000976562 8.25 0.000976562H35.75C40.3067 0.000976562 44 3.69427 44 8.25098V35.751C44 40.3077 40.3067 44.001 35.75 44.001Z" fill="white"/>
<path d="M21.6945 21.3898C19.1672 21.3898 17.1111 19.3339 17.1111 16.8066C17.1111 14.2793 19.1672 12.2232 21.6945 12.2232C24.2217 12.2232 26.2779 14.2793 26.2779 16.8066C26.2779 19.3339 24.2217 21.3898 21.6945 21.3898ZM21.6945 13.5982C19.9254 13.5982 18.4861 15.0373 18.4861 16.8066C18.4861 18.5757 19.9254 20.0148 21.6945 20.0148C23.4636 20.0148 24.9029 18.5757 24.9029 16.8066C24.9029 15.0373 23.4636 13.5982 21.6945 13.5982Z" fill="white"/>
<path d="M22.116 31.4732H14.1318C13.7523 31.4732 13.4443 31.1652 13.4443 30.7857V27.5773C13.4443 25.1766 15.3977 23.2232 17.7984 23.2232H23.0235C23.403 23.2232 23.711 23.5312 23.711 23.9107C23.711 24.2902 23.403 24.5982 23.0235 24.5982H17.7984C16.1559 24.5982 14.8193 25.9348 14.8193 27.5773V30.0982H22.116C22.4955 30.0982 22.8035 30.4062 22.8035 30.7857C22.8035 31.1652 22.4955 31.4732 22.116 31.4732Z" fill="white"/>
<path d="M21.8838 31.4732H29.8679C30.2474 31.4732 30.5554 31.1652 30.5554 30.7857V27.5773C30.5554 25.1766 28.602 23.2232 26.2013 23.2232H20.9762C20.5967 23.2232 20.2887 23.5312 20.2887 23.9107C20.2887 24.2902 20.5967 24.5982 20.9762 24.5982H26.2013C27.8439 24.5982 29.1804 25.9348 29.1804 27.5773V30.0982H21.8838C21.5043 30.0982 21.1963 30.4062 21.1963 30.7857C21.1963 31.1652 21.5043 31.4732 21.8838 31.4732Z" fill="white"/>
</g>
<defs>
<clipPath id="clip0">
<rect y="0.000976562" width="44" height="44" fill="white"/>
</clipPath>
</defs>
</svg>
