<svg width="22" height="22" viewBox="0 0 22 22" fill="none" xmlns="http://www.w3.org/2000/svg">
<path opacity="0.8" d="M9.66206 11L5.68458 7.02252C5.48932 6.82726 5.48932 6.51068 5.68458 6.31542L6.21491 5.78509C6.41017 5.58983 6.72676 5.58983 6.92202 5.78509L10.8995 9.76256L14.877 5.78509C15.0722 5.58983 15.3888 5.58983 15.5841 5.78509L16.1144 6.31542C16.3097 6.51068 16.3097 6.82726 16.1144 7.02252L12.1369 11L16.1144 14.9775C16.3097 15.1727 16.3097 15.4893 16.1144 15.6846L15.5841 16.2149C15.3888 16.4102 15.0722 16.4102 14.877 16.2149L10.8995 12.2374L6.92202 16.2149C6.72676 16.4102 6.41017 16.4102 6.21491 16.2149L5.68458 15.6846C5.48932 15.4893 5.48932 15.1727 5.68458 14.9775L9.66206 11Z" fill="black" stroke="black" stroke-width="0.5"/>
</svg>
