<svg width="100" height="100" viewBox="0 0 100 100" fill="none" xmlns="http://www.w3.org/2000/svg">
<path d="M51.8594 0H48.1406C45.9315 0 44.1406 1.79086 44.1406 4V16.5078C44.1406 18.717 45.9315 20.5078 48.1406 20.5078H51.8594C54.0685 20.5078 55.8594 18.717 55.8594 16.5078V4C55.8594 1.79086 54.0685 0 51.8594 0Z" fill="black" fill-opacity="0.8"/>
<path d="M15.9585 13.3313L13.3291 15.9607C11.767 17.5227 11.767 20.0554 13.3291 21.6175L22.1732 30.4616C23.7353 32.0237 26.2679 32.0237 27.83 30.4616L30.4594 27.8322C32.0215 26.2701 32.0215 23.7375 30.4594 22.1754L21.6153 13.3313C20.0532 11.7692 17.5205 11.7692 15.9585 13.3313Z" fill="black" fill-opacity="0.8"/>
<path d="M16.5078 44.1406H4C1.79086 44.1406 0 45.9315 0 48.1406V51.8594C0 54.0685 1.79086 55.8594 4 55.8594H16.5078C18.717 55.8594 20.5078 54.0685 20.5078 51.8594V48.1406C20.5078 45.9315 18.717 44.1406 16.5078 44.1406Z" fill="black" fill-opacity="0.8"/>
<path d="M22.1735 69.5389L13.3293 78.383C11.7672 79.9451 11.7672 82.4777 13.3293 84.0398L15.9587 86.6692C17.5208 88.2313 20.0534 88.2313 21.6155 86.6692L30.4596 77.8251C32.0217 76.263 32.0217 73.7304 30.4596 72.1683L27.8303 69.5389C26.2682 67.9768 23.7355 67.9768 22.1735 69.5389Z" fill="black" fill-opacity="0.8"/>
<path d="M51.8594 79.4922H48.1406C45.9315 79.4922 44.1406 81.283 44.1406 83.4922V96C44.1406 98.2091 45.9315 100 48.1406 100H51.8594C54.0685 100 55.8594 98.2091 55.8594 96V83.4922C55.8594 81.283 54.0685 79.4922 51.8594 79.4922Z" fill="black" fill-opacity="0.8"/>
<path d="M72.1686 69.5388L69.5392 72.1682C67.9771 73.7303 67.9771 76.2629 69.5392 77.825L78.3834 86.6691C79.9454 88.2312 82.4781 88.2312 84.0402 86.6691L86.6695 84.0397C88.2316 82.4776 88.2316 79.945 86.6695 78.3829L77.8254 69.5388C76.2633 67.9767 73.7307 67.9767 72.1686 69.5388Z" fill="black" fill-opacity="0.8"/>
<path d="M96 44.1406H83.4922C81.283 44.1406 79.4922 45.9315 79.4922 48.1406V51.8594C79.4922 54.0685 81.283 55.8594 83.4922 55.8594H96C98.2091 55.8594 100 54.0685 100 51.8594V48.1406C100 45.9315 98.2091 44.1406 96 44.1406Z" fill="black" fill-opacity="0.8"/>
</svg>
